<svg id="Layer_1" data-name="Layer 1" xmlns="http://www.w3.org/2000/svg" viewBox="0 0 485.52 570.86"><defs><style>.cls-1{fill:#42a8d0;}.cls-2{fill:#41a8d0;}.cls-3{fill:#41a7d0;}.cls-4{fill:#42a8d1;}.cls-5{fill:#42a7d0;}.cls-6{fill:#44a8d0;}.cls-7{fill:#46a9d1;}.cls-8{fill:#45a8d0;}</style></defs><path class="cls-1" d="M954.48,185.5c71.39,1.36,131.7,27.49,179.81,80.41,43.36,47.7,63.9,104.53,62.47,168.58-1.5,66.88-26.93,124.25-75.44,170.44-48.24,45.93-106.52,68.34-173,66.82-60.18-1.37-113.53-22.37-158-63.35-58.5-54-83.93-121.47-78.3-200.62,3.67-51.65,22.82-97.31,56.51-136.44C817.4,214.64,879.87,186.9,954.48,185.5Zm229.57,243.14c.72-128.48-103-226.68-221.19-230.49-64.66-2.09-121.37,19.21-168.19,64s-71.21,100.45-71.42,165.33c-.22,67.29,24.82,124.69,74.34,170.41,45.88,42.36,100.59,62.5,163.21,61.19C1080.29,656.56,1185,556.32,1184.05,428.64Z" transform="translate(-711.31 -185.5)"/><path class="cls-2" d="M1024,669.27c12.82-1.18,24.12.26,32.1,10.52a33.33,33.33,0,0,1,5.39,11.36c4.13,15-2.34,30.94-14.49,36.74-.6.28-1.18.63-1.8.86-8.2,3.11-8.19,3.11-8.2,11.61q0,6.5,0,13a7.06,7.06,0,0,1-.31,1.25,28.8,28.8,0,0,1-4.44,1.35c-6.6.95-8.2-.48-8.2-7.09V669.27Zm13.17,49.23c9.08-1.27,12.7-10.13,12.63-18.21-.07-9.18-3.22-17.23-12.63-18.55Z" transform="translate(-711.31 -185.5)"/><path class="cls-2" d="M780.19,754.45C768.33,757,768.33,757,763.52,742c-5.16,0-10.48-.19-15.76.15-1.29.08-3,1.69-3.57,3-.88,1.87-.67,4.24-1.46,6.18-.57,1.4-1.84,3.27-3.08,3.52-3.12.61-6.4.43-9.62.57.31-2.93.22-6,1-8.77q10.49-38.13,21.25-76.19a27.87,27.87,0,0,1,1.45-3.44l1.64-.26ZM748,730.82h12.57l-6.13-24.08C752.18,715.13,750.17,722.65,748,730.82Z" transform="translate(-711.31 -185.5)"/><path class="cls-2" d="M1152,670.12h12v48.16l.89.37c2.93-4.82,6.28-9.44,8.66-14.52s5.85-7.08,11.26-6.15c1.28.21,2.62.14,5.15.26-3.63,6.22-6.26,12.38-10.35,17.33-6.06,7.32-6.35,13.59.22,20.53,2.47,2.61,4.06,6,6.1,9.07s4.06,5.92,6.32,9.21a40.76,40.76,0,0,1-4.47,1.24c-4.62.72-8.9,1.34-11.9-4-3.16-5.68-7.3-10.82-11.79-17.3v19.9C1152,757.66,1152,757.66,1152,746V670.12Z" transform="translate(-711.31 -185.5)"/><path class="cls-3" d="M946,754.61a38.78,38.78,0,0,1-5.3,1.34c-5.32.55-6.68-.75-6.69-6.1,0-10.66,0-21.32,0-32,0-5.92-2.59-8.91-7.49-8.88q-8.47.06-8.5,9v36.53a36.05,36.05,0,0,1-4.89,1.43c-5.44.75-7.11-.75-7.11-6.19V697.48c.68-.2,1-.46,1.3-.37,2.08.76,14.17,1.25,16.37.75,13.1-2.93,21.38,4,22.12,15.56C946.66,727,946,740.68,946,754.61Z" transform="translate(-711.31 -185.5)"/><path class="cls-2" d="M992.84,752c-11.37,7.56-29.47,6-34.55-10.43-3.68-11.89-3.82-23.59,2.39-34.86,5.35-9.71,17.45-13,26.19-6.62a17.9,17.9,0,0,1,5.11,7c3.53,7.75,3.57,15.88,1.37,24.92H968c1.3,3.49,2.15,6.7,3.66,9.57,2.41,4.62,7.23,6.28,11.24,4.11,5.92-3.21,7.39,0,9.06,4.23C992.21,750.51,992.46,751.11,992.84,752Zm-25.36-31c5.44,0,9.22.18,12.95-.14.85-.07,2.1-1.79,2.2-2.84a15.33,15.33,0,0,0-.81-5.27c-1.27-4.64-5.74-6.05-8.82-2.38C970.75,713,969.65,716.66,967.48,721Z" transform="translate(-711.31 -185.5)"/><path class="cls-2" d="M1106,755.6c-.8.2-1,.32-1.11.27-6-2.73-12.06,0-18,.27-9.78.53-16.23-8-16.87-16.5-1.11-14.87,8.83-19.87,20.88-21.63.81-.12,1.64-.09,2.42-.13,1.28-7.58-3.36-11.23-10.91-9.13-2.39.66-5.46,3.48-7.42-1.29-2.94-7.18-2.62-8,5.29-9.48,12.1-2.24,18.69-.18,22.85,7.71a21.93,21.93,0,0,1,2.77,9.31C1106.16,728.46,1106,741.93,1106,755.6Zm-12-28.06c-2.74.9-4.79,1.4-6.68,2.24-6.19,2.76-7.38,10.78-2,14.84a7,7,0,0,0,5.78.7c1.32-.48,2.61-2.79,2.76-4.4C1094.26,736.84,1094,732.7,1094,727.54Z" transform="translate(-711.31 -185.5)"/><path class="cls-1" d="M880.76,717.73c.56-8.24-3.39-11.38-10.81-8.88-5.15,1.74-9-1.08-9-6.74a3.35,3.35,0,0,1,1.8-2.38c7.54-3.15,15.13-4.46,22.66.11,6.29,3.82,7.64,9.86,7.61,16.61-.06,13,0,25.94,0,38.75-.55.35-.91.71-1,.64-5.89-3.11-11.74.16-17.57.33-10.27.3-17.52-9.54-16.72-20.19.9-11.94,9.8-16.05,20.76-18C879.21,717.87,880,717.82,880.76,717.73Zm.24,10.1a37.35,37.35,0,0,0-5.67,1.53c-6.16,2.85-7.93,10-3.29,14.49,1.45,1.42,4.4,1.87,6.59,1.71.89-.07,2.14-2.87,2.26-4.5C881.21,736.83,881,732.55,881,727.83Z" transform="translate(-711.31 -185.5)"/><path class="cls-4" d="M851.26,701a49.38,49.38,0,0,0-3,6.1c-1,3-2.47,3.1-5.25,2.08-5.82-2.13-9.47-.71-11.8,5.2-3.39,8.58-3.59,17.47.39,26,2.72,5.81,5.79,7,11.58,4.5,2.88-1.21,4.25-.68,5.21,2.19a44.4,44.4,0,0,0,2.5,5.25c-6.16,5.7-19.53,5.3-25.74-.6-10.57-10.05-11.27-37.6-1.22-48.19C831.37,695.73,840.72,694.76,851.26,701Z" transform="translate(-711.31 -185.5)"/><path class="cls-1" d="M799,753.9c-.46.6-.54.81-.66.84C786,757.67,786,757.67,786,745V696l9,5.21,17-5.35c0,3.84-.07,6.11,0,8.38.12,3.19-.88,4.78-4.54,4.82-6.9.09-8.51,2-8.51,9Z" transform="translate(-711.31 -185.5)"/><path class="cls-3" d="M1119,696.45c6.92,5.77,13,3.83,19.21,1,1.52-.68,3.49-.34,5.54-.49.1,1.87.1,3.34.26,4.78.54,4.67.09,7.72-6.19,7.56-4.15-.1-7.19,2.51-7,8.09.48,12.26.15,24.56.15,36.64-.51.4-.72.72-1,.77-11,2.24-11,2.24-11-9.2Z" transform="translate(-711.31 -185.5)"/><path class="cls-3" d="M1095.62,582.66H808.28V455.09C914.48,474.4,1009.2,519,1096,581.45Z" transform="translate(-711.31 -185.5)"/><path class="cls-3" d="M1079,380.72c-9,.64-9,.64-9-7.57,0-11.83-.4-23.68.17-35.48.28-5.7-2.08-8.54-6.7-10.49-2.25-.95-4.56-1.77-7.32-2.84V394.1c-8.22,2.14-9.15,1.45-9.15-6.27V322.24h-13.87v57.52c-1.84.1-3.13.1-4.4.25-3.82.47-4.83-1.34-4.79-4.94.15-15.16.06-30.32.06-45.48v-4.84c-.54-.28-.85-.58-1.07-.53-11.93,3.13-11.93,3.13-11.93,15.53V362c-2,0-3.73-.14-5.46,0-3.52.34-4.68-1.19-4.6-4.64.19-7.49.06-15,.06-23-8.25,4.4-12.56,12.08-18,18.63-8.2,9.81-14.71,21.06-25.27,28.85-9.57,7.06-19.9,8.34-31.17,5.35-16-4.26-24-16.13-29.5-30.54-3.36-8.86-6.06-18.05-10.25-26.5-5-10-13.78-15.93-25-17.09a54,54,0,0,0-31.08,6c-3.57,1.88-6.93,2.67-10.35-.35s-3.36-9.24.69-11.11c18.92-8.75,38.38-13.27,58.27-3.4C892.56,310.78,900,322.5,905,336c3.47,9.31,6.58,18.86,11.13,27.64a21.69,21.69,0,0,0,33.21,6.25c6.57-5.79,12.08-12.88,17.57-19.78,4.78-6,4.48-6.25-1.16-11.87-2.12-2.12-4.27-4.2-6.39-6.28,18.51-22.72,40.45-39.11,71.09-40.9,1.93,4.84,3.71,9.73,5.89,14.43a4.84,4.84,0,0,0,3.58,2.41c15.37-.45,28.68,5.16,40.65,14.09a79,79,0,0,1,22.51,25.34c2,3.56,1.56,7.12-2,9.6-3.23,2.26-7.43,1.1-9.93-2.48-3.6-5.13-7.14-10.3-10.71-15.45l-1.43.72Z" transform="translate(-711.31 -185.5)"/><path class="cls-2" d="M1010,406.12l-4,7.9-6.07,3.06h-7l-9-7c-.15.08-.43.18-.42.24,1.65,12.94-8.55,17.54-16.62,23.65-.49.37-.95.77-1.8,1.46,4.12.55,7.77.94,11.38,1.54,6.5,1.09,9.33,3.85,9.43,10.41.24,14.65.3,29.31-.17,43.94-.07,2.16-3.16,5.57-5.31,6-2.48.47-6.13-1.1-8-3-1.69-1.71-2.23-5.08-2.31-7.75-.26-9.29-.1-18.59-.1-28.55-9.55,0-18.8,0-28,0-5.51,0-10.38-1.72-14.24-5.78s-4.23-12.37-.08-16.23c8.08-7.55,16.52-14.73,24.78-22.1,2-1.77,3.77-3.76,5.75-5.53,7.73-6.89,15-9,23.47-.54.2-1.08.36-1.95.53-2.81q1.89-5.56,3.79-11.11l.93-.93,7.11-3.78,10,2,1.08.8c4.37,3.28,5.27,8.07,5.72,13.06Z" transform="translate(-711.31 -185.5)"/><path class="cls-3" d="M861.44,408c7.48,0,14.93,0,22.39,0,6.52,0,10.15,3.6,10.16,10,0,14.31-.1,28.63.08,42.94,0,4.35-1.83,6.91-5.75,7.92s-8-1.63-9.28-5.58a21.84,21.84,0,0,1-1-6.27c-.11-9.13,0-18.25,0-28.06-7.41,0-14.53-.48-21.58.1-15.3,1.25-19.34-6.29-21.44-18.48-1.6-9.35-3-18.75-5.26-28-1.91-7.83,3.09-13.42,9.37-15.23s13.82,1.92,15.74,8.53c1.82,6.25,2.83,12.73,4.14,19.13C859.82,399.23,860.57,403.4,861.44,408Z" transform="translate(-711.31 -185.5)"/><path class="cls-3" d="M1074.56,518.42c-8.79-1.8-17.64-3.52-26.44-5.45-7.91-1.73-12.11-7.09-12.12-15.07,0-9.83.37-19.68-.11-29.48-.41-8.31,5.75-13.06,11.83-13.57,8.11-.7,14.19,5.25,14.26,13.34.06,7.16.17,14.33,0,21.48-.11,3.49,1,4.9,4.57,5.44a170.64,170.64,0,0,1,18.7,3.93c5.92,1.59,8.26,6.42,7.1,12.45-2.55,13.17-5,26.37-7.29,39.58-.8,4.48-4.37,9.12-7.43,8.65-5.23-.81-9.67-4-8.6-9.84,1.56-8.54,3-17.11,4.46-25.66C1073.77,522.29,1074.18,520.38,1074.56,518.42Z" transform="translate(-711.31 -185.5)"/><path class="cls-1" d="M1032.27,485.44c-.29,4.94-.71,9.87-.86,14.81-.23,7.48,7,15,16,16.69,4.17.78,8.38,1.38,12.58,2.08,5.16.85,8,4.71,7,9.43-.71,3.28-4.61,4.84-9.3,3.85-5.61-1.18-11.28-2.1-16.87-3.38-11.54-2.64-22.35-13.73-22.72-26.49-.28-9.31-.41-18.65.15-27.93a11.73,11.73,0,0,1,4.49-8.06c4.17-2.76,9,.63,9.24,6,.21,4.31,0,8.64,0,13Z" transform="translate(-711.31 -185.5)"/><path class="cls-1" d="M947.72,475.52c-6.83-1-14-1-20.42-3.13-12-4-18.65-13.18-20.15-25.67-1.07-9-1.5-18.08-2.13-27.12-.27-3.94,1.58-6.34,5.66-6.57,4.35-.25,6.85,2,7.32,6.24,1,9,1.93,18,3,26.93,1.07,8.71,7.58,14.3,16.91,14.81,4.94.27,9.9.46,14.8,1.07,3.49.43,7,1.56,7.18,6,.2,4.58-2.46,6.84-7.65,6.94-1.5,0-3,0-4.49,0Z" transform="translate(-711.31 -185.5)"/><path class="cls-5" d="M855,446c-11.59,1.31-21.4-1.8-29.41-10.75-5.17-5.79-6.24-12.8-7.58-19.86-1.21-6.42-2.18-12.89-3.46-19.3-.93-4.64.64-8.38,4.17-9,5.55-1.05,8.1.6,9.19,6.15,1.73,8.81,3.38,17.64,5.06,26.46,1.61,8.51,7.59,12.43,16.48,13.26,4.95.46,10,.06,15,.09,5.69,0,8.55,2,8.55,6s-3.79,7-9,7Z" transform="translate(-711.31 -185.5)"/><path class="cls-2" d="M841.72,366c-7.17,1.28-15.21-7.37-14.82-14.61.4-7.41,6.38-14.52,13.56-14.29,8.79.28,15.1,6.15,15.35,14.26S849.29,366.94,841.72,366Z" transform="translate(-711.31 -185.5)"/><path class="cls-3" d="M1066,439.16c0,8.06-6.2,15.21-13.5,14.67-8.69-.64-15.06-6-15.41-14.82-.26-6.33,5.63-14.76,15.1-14.12C1060.06,425.43,1066,431.09,1066,439.16Z" transform="translate(-711.31 -185.5)"/><path class="cls-3" d="M982.05,283c5.65,0,9,3.05,9,8.11,0,4.22-3.94,8.58-7.81,8.75-4.73.21-9.26-4.23-9.19-9A7.62,7.62,0,0,1,982.05,283Z" transform="translate(-711.31 -185.5)"/><path class="cls-3" d="M1004.38,275c5.85-.26,8.14,3.28,8.52,8,.36,4.39-4.23,9.06-8.15,8.86A9.22,9.22,0,0,1,996,282.4C996,277.76,999.25,274.93,1004.38,275Z" transform="translate(-711.31 -185.5)"/><path class="cls-1" d="M964.85,300c4.43-.07,9,4,9,8,0,4.45-3.92,8.81-8.12,9s-9.58-5.1-9.49-9.09S960.55,300.07,964.85,300Z" transform="translate(-711.31 -185.5)"/><path class="cls-6" d="M1015,435.92l-2.66,7.05c-1.81-.82-4.29-1.2-5.22-2.6-.73-1.11.45-3.49,1-6.26-1.13-1.18-5.44-2.94-1.72-6.62,1-.94,4.3-.95,5.34,0,2.58,2.3,1.9,5-1.28,7.16L1015,436Z" transform="translate(-711.31 -185.5)"/><path class="cls-6" d="M1030.92,442c4,.81,6.48,2.47,3.88,7l-3.82,1.06c-.67.67-1.29,1.39-2,2-1.54,1.32-3.17,3.65-4.67,3.58s-3.93-2.69-3.88-4.12c.09-2.62,2.36-4,5.36-3.56.64.1,1.4-.6,2.1-.92L1028,445c.08-.34.17-.68.25-1l.77-.77,2-1.22Z" transform="translate(-711.31 -185.5)"/><path class="cls-7" d="M1027.93,433.05l5.82,2.46c-.94,2.18-1.88,4.35-2.83,6.53l.08-.06-5-1,.07.08c-.16-2.89-1.67-6.1,2-8.07Z" transform="translate(-711.31 -185.5)"/><path class="cls-6" d="M1020.28,421.9c.19-3-1-7.1,4.23-6.8,1.4.09,3.38,1.09,3.91,2.22a4.77,4.77,0,0,1-1,4.3c-.87.88-2.83.82-4.32.88a11.35,11.35,0,0,1-3-.73Z" transform="translate(-711.31 -185.5)"/><path class="cls-8" d="M1023,430.94c-.47,2.25-.94,4.49-1.42,6.74l-6.58-1.76.06.08c0-6.45,1.57-7.39,8-5Z" transform="translate(-711.31 -185.5)"/><path class="cls-6" d="M1028,433l-5.07-2.05.07.08c-.63-2.52-1.59-5.42,1.92-6.31a5.93,5.93,0,0,1,4.93,1.46c2.63,2.9-.06,4.9-1.93,6.88Z" transform="translate(-711.31 -185.5)"/><path class="cls-7" d="M1011,418c-.26,2.07-.24,4.25-1,6.14-.2.53-3.1.82-3.88.17-1.35-1.14-2-3.1-3-4.71a37.83,37.83,0,0,1,5.19-2.47c.73-.23,1.79.6,2.7.94Z" transform="translate(-711.31 -185.5)"/><path class="cls-7" d="M1035.4,416.52c1.61,3,3.28,4.8,3.33,6.65,0,1.2-2.84,3.71-3.51,3.44-1.87-.77-4.4-2.58-4.54-4.17S1033.12,419.21,1035.4,416.52Z" transform="translate(-711.31 -185.5)"/><path class="cls-6" d="M1011,418c-1.39-5,.29-8,4.17-6.85,1.47.42,2.37,2.81,3.53,4.31a27.06,27.06,0,0,1-4.61,3.33c-.76.35-2.09-.54-3.16-.86Z" transform="translate(-711.31 -185.5)"/><path class="cls-6" d="M1026,441c-.18,2.72.51,6.12-3.86,6-3.08-.11-4.39-2.08-4.1-5.05.36-3.64,3.51-4,8-.84Z" transform="translate(-711.31 -185.5)"/><path class="cls-6" d="M1018.12,447.93c-2.83,2-4.56,4.12-5.6,3.82-1.73-.5-3-2.52-4.5-3.91,1.41-1.27,2.69-3.31,4.26-3.57C1013.56,444.06,1015.19,446,1018.12,447.93Z" transform="translate(-711.31 -185.5)"/><path class="cls-8" d="M1020.28,421.9l-.12-.13a55.82,55.82,0,0,1-1.18,6.47c-.07.24-2.92.3-3.29-.29-1.07-1.75-2.67-4.49-2-5.71C1015.13,419.62,1017.93,419.59,1020.28,421.9Z" transform="translate(-711.31 -185.5)"/><path class="cls-1" d="M984,410.1l9,7C989.24,415.73,985.26,414.65,984,410.1Z" transform="translate(-711.31 -185.5)"/><path class="cls-1" d="M986,393.89q-1.9,5.55-3.79,11.11C981.68,400.7,981.62,396.54,986,393.89Z" transform="translate(-711.31 -185.5)"/><path class="cls-1" d="M994,389.18,986.89,393Z" transform="translate(-711.31 -185.5)"/><path class="cls-1" d="M1000,417.08l6.07-3.06Z" transform="translate(-711.31 -185.5)"/><path class="cls-6" d="M1031,450.06l3.82-1.06Z" transform="translate(-711.31 -185.5)"/><path class="cls-6" d="M1028,445l-.06,2.07Z" transform="translate(-711.31 -185.5)"/><path class="cls-6" d="M1029,443.2l-.77.77Z" transform="translate(-711.31 -185.5)"/><path class="cls-1" d="M1010,406.12l.79-1.09Z" transform="translate(-711.31 -185.5)"/><path class="cls-1" d="M1005.11,392l-1.08-.8Z" transform="translate(-711.31 -185.5)"/></svg>